<svg width="218" height="34" viewBox="0 0 218 34" fill="none" xmlns="http://www.w3.org/2000/svg">
<g clip-path="url(#clip0_941_151)">
<path d="M2.828 28V7.476H14.644V9.66H5.404V16.604H13.244V18.788H5.404V28H2.828ZM18.2772 28V7.476H20.8532V28H18.2772ZM30.7363 28V9.66H24.5203V7.476H39.5563V9.66H33.3403V28H30.7363ZM47.4981 28V9.66H41.2821V7.476H56.3181V9.66H50.1021V28H47.4981ZM60.0038 28V7.476H62.5798V28H60.0038ZM68.2069 28V7.476H70.8389L78.3429 20.412L80.5549 24.64H80.6949C80.6016 23.6133 80.5176 22.54 80.4429 21.42C80.3682 20.3 80.3309 19.208 80.3309 18.144V7.476H82.7949V28H80.1349L72.6589 15.036L70.4469 10.836H70.3349C70.3909 11.8627 70.4562 12.9173 70.5309 14C70.6056 15.064 70.6429 16.1373 70.6429 17.22V28H68.2069ZM96.5053 28.364C94.6946 28.364 93.0893 27.944 91.6893 27.104C90.3079 26.264 89.2159 25.0507 88.4133 23.464C87.6293 21.8773 87.2373 19.9733 87.2373 17.752C87.2373 16.0907 87.4706 14.6067 87.9373 13.3C88.4039 11.9747 89.0573 10.8547 89.8973 9.94C90.7559 9.02533 91.7546 8.32533 92.8933 7.84C94.0319 7.35467 95.2826 7.112 96.6453 7.112C98.0826 7.112 99.2773 7.38267 100.229 7.924C101.181 8.44667 101.956 9.016 102.553 9.632L101.153 11.312C100.631 10.7707 100.015 10.3133 99.3053 9.94C98.6146 9.56667 97.7559 9.38 96.7293 9.38C95.3479 9.38 94.1439 9.716 93.1173 10.388C92.0906 11.06 91.2973 12.0213 90.7373 13.272C90.1773 14.504 89.8973 15.9693 89.8973 17.668C89.8973 19.404 90.1586 20.9067 90.6813 22.176C91.2226 23.4267 92.0066 24.3973 93.0333 25.088C94.0599 25.76 95.3013 26.096 96.7573 26.096C97.4853 26.096 98.1759 25.9933 98.8293 25.788C99.5013 25.564 100.043 25.2653 100.453 24.892V19.516H96.0853V17.36H102.833V25.984C102.161 26.6747 101.275 27.244 100.173 27.692C99.0906 28.14 97.8679 28.364 96.5053 28.364ZM114.008 28V7.476H120.42C121.82 7.476 123.052 7.66267 124.116 8.036C125.198 8.39067 126.048 8.988 126.664 9.828C127.28 10.668 127.588 11.7973 127.588 13.216C127.588 14.5787 127.28 15.7173 126.664 16.632C126.048 17.528 125.198 18.2 124.116 18.648C123.052 19.0773 121.82 19.292 120.42 19.292H116.584V28H114.008ZM116.584 17.22H120.028C121.633 17.22 122.865 16.8933 123.724 16.24C124.582 15.568 125.012 14.56 125.012 13.216C125.012 11.872 124.582 10.9293 123.724 10.388C122.865 9.84667 121.633 9.576 120.028 9.576H116.584V17.22ZM125.264 28L119.888 18.62L121.932 17.248L128.176 28H125.264ZM131.781 28V7.476H143.597V9.66H134.357V16.1H142.141V18.312H134.357V25.788H143.905V28H131.781ZM148.269 28V7.476H154.121C155.652 7.476 156.996 7.672 158.153 8.064C159.311 8.43733 160.207 9.06267 160.841 9.94C161.476 10.8173 161.793 12.0027 161.793 13.496C161.793 14.9333 161.476 16.1187 160.841 17.052C160.207 17.9853 159.32 18.6853 158.181 19.152C157.043 19.6 155.727 19.824 154.233 19.824H150.845V28H148.269ZM150.845 17.724H153.897C155.689 17.724 157.024 17.388 157.901 16.716C158.779 16.044 159.217 14.9707 159.217 13.496C159.217 12.0027 158.76 10.976 157.845 10.416C156.949 9.856 155.596 9.576 153.785 9.576H150.845V17.724ZM173.548 28.364C171.831 28.364 170.309 27.9347 168.984 27.076C167.677 26.1987 166.651 24.9573 165.904 23.352C165.157 21.7467 164.784 19.852 164.784 17.668C164.784 15.4653 165.157 13.58 165.904 12.012C166.651 10.4253 167.677 9.212 168.984 8.372C170.309 7.532 171.831 7.112 173.548 7.112C175.265 7.112 176.777 7.54133 178.084 8.4C179.409 9.24 180.445 10.444 181.192 12.012C181.939 13.58 182.312 15.4653 182.312 17.668C182.312 19.852 181.939 21.7467 181.192 23.352C180.445 24.9573 179.409 26.1987 178.084 27.076C176.777 27.9347 175.265 28.364 173.548 28.364ZM173.548 26.096C174.78 26.096 175.853 25.7507 176.768 25.06C177.683 24.3693 178.392 23.3893 178.896 22.12C179.4 20.8507 179.652 19.3667 179.652 17.668C179.652 15.9507 179.4 14.476 178.896 13.244C178.392 11.9933 177.683 11.0413 176.768 10.388C175.853 9.716 174.78 9.38 173.548 9.38C172.335 9.38 171.261 9.716 170.328 10.388C169.413 11.0413 168.704 11.9933 168.2 13.244C167.696 14.476 167.444 15.9507 167.444 17.668C167.444 19.3667 167.696 20.8507 168.2 22.12C168.704 23.3893 169.413 24.3693 170.328 25.06C171.261 25.7507 172.335 26.096 173.548 26.096ZM186.769 28V7.476H193.181C194.581 7.476 195.813 7.66267 196.877 8.036C197.96 8.39067 198.809 8.988 199.425 9.828C200.041 10.668 200.349 11.7973 200.349 13.216C200.349 14.5787 200.041 15.7173 199.425 16.632C198.809 17.528 197.96 18.2 196.877 18.648C195.813 19.0773 194.581 19.292 193.181 19.292H189.345V28H186.769ZM189.345 17.22H192.789C194.395 17.22 195.627 16.8933 196.485 16.24C197.344 15.568 197.773 14.56 197.773 13.216C197.773 11.872 197.344 10.9293 196.485 10.388C195.627 9.84667 194.395 9.576 192.789 9.576H189.345V17.22ZM198.025 28L192.649 18.62L194.693 17.248L200.937 28H198.025ZM208.307 28V9.66H202.091V7.476H217.127V9.66H210.911V28H208.307Z" fill="#333333"/>
</g>
<defs>
<clipPath id="clip0_941_151">
<rect width="218" height="34" fill="white"/>
</clipPath>
</defs>
</svg>
