<svg width="192" height="34" viewBox="0 0 192 34" fill="none" xmlns="http://www.w3.org/2000/svg">
<g clip-path="url(#clip0_941_150)">
<path d="M2.828 28V7.476H5.936L9.856 18.452C10.1173 19.1427 10.3693 19.852 10.612 20.58C10.8547 21.308 11.0973 22.0267 11.34 22.736H11.452C11.7133 22.0267 11.956 21.308 12.18 20.58C12.4227 19.852 12.656 19.1427 12.88 18.452L16.8 7.476H19.908V28H17.5V16.632C17.5 16.0347 17.5187 15.3907 17.556 14.7C17.5933 13.9907 17.64 13.2813 17.696 12.572C17.752 11.844 17.7987 11.1813 17.836 10.584H17.724L16.072 15.26L12.208 25.928H10.472L6.58 15.26L4.928 10.584H4.816C4.89067 11.1813 4.94667 11.844 4.984 12.572C5.04 13.2813 5.07733 13.9907 5.096 14.7C5.13333 15.3907 5.152 16.0347 5.152 16.632V28H2.828ZM25.5507 28V7.476H37.3667V9.66H28.1267V16.1H35.9107V18.312H28.1267V25.788H37.6747V28H25.5507ZM39.3229 28L46.2669 7.476H49.1509L56.1229 28H53.3789L49.7949 16.52C49.4216 15.344 49.0669 14.196 48.7309 13.076C48.3949 11.9373 48.0589 10.7707 47.7229 9.576H47.6109C47.2936 10.7707 46.9576 11.9373 46.6029 13.076C46.2669 14.196 45.9216 15.344 45.5669 16.52L41.9269 28H39.3229ZM42.9349 21.728V19.684H52.3989V21.728H42.9349ZM64.7581 28.364C63.3021 28.364 61.9581 28.0933 60.7261 27.552C59.5128 27.0107 58.4674 26.2733 57.5901 25.34L59.1301 23.548C59.8581 24.3133 60.7168 24.9293 61.7061 25.396C62.6954 25.8627 63.7221 26.096 64.7861 26.096C66.1488 26.096 67.2034 25.788 67.9501 25.172C68.7154 24.556 69.0981 23.7533 69.0981 22.764C69.0981 22.036 68.9394 21.4573 68.6221 21.028C68.3234 20.5987 67.9128 20.244 67.3901 19.964C66.8861 19.6653 66.3074 19.376 65.6541 19.096L62.7141 17.808C62.0794 17.528 61.4354 17.1733 60.7821 16.744C60.1474 16.3147 59.6154 15.7547 59.1861 15.064C58.7568 14.3733 58.5421 13.5333 58.5421 12.544C58.5421 11.48 58.8221 10.5467 59.3821 9.744C59.9421 8.92267 60.7074 8.27867 61.6781 7.812C62.6488 7.34533 63.7594 7.112 65.0101 7.112C66.2421 7.112 67.3714 7.34533 68.3981 7.812C69.4434 8.27867 70.3208 8.88533 71.0301 9.632L69.6861 11.284C69.0514 10.7053 68.3514 10.248 67.5861 9.912C66.8394 9.55733 65.9808 9.38 65.0101 9.38C63.8528 9.38 62.9194 9.65067 62.2101 10.192C61.5194 10.7147 61.1741 11.4333 61.1741 12.348C61.1741 13.02 61.3421 13.5707 61.6781 14C62.0328 14.4293 62.4714 14.7747 62.9941 15.036C63.5168 15.2973 64.0488 15.5493 64.5901 15.792L67.5021 17.052C68.2861 17.388 68.9954 17.7893 69.6301 18.256C70.2834 18.7227 70.7968 19.3013 71.1701 19.992C71.5434 20.6827 71.7301 21.532 71.7301 22.54C71.7301 23.6227 71.4501 24.612 70.8901 25.508C70.3301 26.3853 69.5274 27.0853 68.4821 27.608C67.4368 28.112 66.1954 28.364 64.7581 28.364ZM83.0338 28.364C81.9884 28.364 81.0178 28.2147 80.1218 27.916C79.2258 27.6173 78.4418 27.1227 77.7698 26.432C77.1164 25.7413 76.6031 24.8267 76.2298 23.688C75.8564 22.5493 75.6698 21.168 75.6698 19.544V7.476H78.2458V19.6C78.2458 21.2427 78.4604 22.54 78.8898 23.492C79.3191 24.4253 79.8884 25.0973 80.5978 25.508C81.3258 25.9 82.1378 26.096 83.0338 26.096C83.9484 26.096 84.7698 25.9 85.4978 25.508C86.2258 25.0973 86.8044 24.4253 87.2338 23.492C87.6818 22.54 87.9058 21.2427 87.9058 19.6V7.476H90.3978V19.544C90.3978 21.168 90.2111 22.5493 89.8378 23.688C89.4831 24.8267 88.9698 25.7413 88.2978 26.432C87.6258 27.1227 86.8418 27.6173 85.9458 27.916C85.0498 28.2147 84.0791 28.364 83.0338 28.364ZM95.9335 28V7.476H102.345C103.745 7.476 104.977 7.66267 106.041 8.036C107.124 8.39067 107.973 8.988 108.589 9.828C109.205 10.668 109.513 11.7973 109.513 13.216C109.513 14.5787 109.205 15.7173 108.589 16.632C107.973 17.528 107.124 18.2 106.041 18.648C104.977 19.0773 103.745 19.292 102.345 19.292H98.5095V28H95.9335ZM98.5095 17.22H101.953C103.559 17.22 104.791 16.8933 105.649 16.24C106.508 15.568 106.937 14.56 106.937 13.216C106.937 11.872 106.508 10.9293 105.649 10.388C104.791 9.84667 103.559 9.576 101.953 9.576H98.5095V17.22ZM107.189 28L101.813 18.62L103.857 17.248L110.101 28H107.189ZM113.707 28V7.476H125.523V9.66H116.283V16.1H124.067V18.312H116.283V25.788H125.831V28H113.707ZM142.141 28.364C140.685 28.364 139.341 28.0933 138.109 27.552C136.896 27.0107 135.85 26.2733 134.973 25.34L136.513 23.548C137.241 24.3133 138.1 24.9293 139.089 25.396C140.078 25.8627 141.105 26.096 142.169 26.096C143.532 26.096 144.586 25.788 145.333 25.172C146.098 24.556 146.481 23.7533 146.481 22.764C146.481 22.036 146.322 21.4573 146.005 21.028C145.706 20.5987 145.296 20.244 144.773 19.964C144.269 19.6653 143.69 19.376 143.037 19.096L140.097 17.808C139.462 17.528 138.818 17.1733 138.165 16.744C137.53 16.3147 136.998 15.7547 136.569 15.064C136.14 14.3733 135.925 13.5333 135.925 12.544C135.925 11.48 136.205 10.5467 136.765 9.744C137.325 8.92267 138.09 8.27867 139.061 7.812C140.032 7.34533 141.142 7.112 142.393 7.112C143.625 7.112 144.754 7.34533 145.781 7.812C146.826 8.27867 147.704 8.88533 148.413 9.632L147.069 11.284C146.434 10.7053 145.734 10.248 144.969 9.912C144.222 9.55733 143.364 9.38 142.393 9.38C141.236 9.38 140.302 9.65067 139.593 10.192C138.902 10.7147 138.557 11.4333 138.557 12.348C138.557 13.02 138.725 13.5707 139.061 14C139.416 14.4293 139.854 14.7747 140.377 15.036C140.9 15.2973 141.432 15.5493 141.973 15.792L144.885 17.052C145.669 17.388 146.378 17.7893 147.013 18.256C147.666 18.7227 148.18 19.3013 148.553 19.992C148.926 20.6827 149.113 21.532 149.113 22.54C149.113 23.6227 148.833 24.612 148.273 25.508C147.713 26.3853 146.91 27.0853 145.865 27.608C144.82 28.112 143.578 28.364 142.141 28.364ZM153.137 28V7.476H155.713V28H153.137ZM159.912 28V26.432L170.748 9.66H160.892V7.476H173.94V9.016L163.104 25.788H174.08V28H159.912ZM178.211 28V7.476H190.027V9.66H180.787V16.1H188.571V18.312H180.787V25.788H190.335V28H178.211Z" fill="#333333"/>
</g>
<defs>
<clipPath id="clip0_941_150">
<rect width="192" height="34" fill="white"/>
</clipPath>
</defs>
</svg>
